<svg id="bold" enable-background="new 0 0 24 24" height="512" viewBox="0 0 24 24" width="512" 
  xmlns="http://www.w3.org/2000/svg">
  <circle cx="5.5" cy="14" r="3" fill="#ffffff"/>
  <path d="m8.25 19h-5.5c-1.517 0-2.75 1.233-2.75 2.75v1.5c0 .414.336.75.75.75h9.5c.414 0 .75-.336.75-.75v-1.5c0-1.517-1.233-2.75-2.75-2.75z" fill="#ffffff"/>
  <circle cx="18.5" cy="14" r="3" fill="#ffffff"/>
  <path d="m21.25 19h-5.5c-1.517 0-2.75 1.233-2.75 2.75v1.5c0 .414.336.75.75.75h9.5c.414 0 .75-.336.75-.75v-1.5c0-1.517-1.233-2.75-2.75-2.75z" fill="#ffffff"/>
  <path d="m14.04 10.171v.72c0 .61-.5 1.11-1.12 1.11h-1.84c-.54 0-1.12-.4-1.12-1.29v-.54z" fill="#ffffff"/>
  <path d="m16.501 4.471c0 1.35-.6 2.61-1.65 3.46-.42.34-.69.78-.78 1.24h-4.13c-.07-.45-.32-.87-.73-1.19-1.11-.87-1.74-2.18-1.71-3.6.05-2.38 2.04-4.35 4.43-4.38 1.21-.03 2.37.44 3.24 1.3.86.84 1.33 1.97 1.33 3.17z" fill="#ffffff"/>
</svg>